Coordinates
version=1
nRows=11
nColumns=36
inDegrees=yes

Units are S.I. units (second, meters, Newtons, ...)
If the header above contains a line with 'inDegrees', this indicates whether rotational values are in degrees (yes) or radians (no).

endheader
time	pelvis_tilt	pelvis_list	pelvis_rotation	pelvis_tx	pelvis_ty	pelvis_tz	hip_flexion_r	hip_adduction_r	hip_rotation_r	knee_angle_r	knee_angle_r_beta	ankle_angle_r	subtalar_angle_r	mtp_angle_r	hip_flexion_l	hip_adduction_l	hip_rotation_l	knee_angle_l	knee_angle_l_beta	ankle_angle_l	subtalar_angle_l	mtp_angle_l	lumbar_extension	lumbar_bending	lumbar_rotation	arm_flex_r	arm_add_r	arm_rot_r	elbow_flex_r	pro_sup_r	arm_flex_l	arm_add_l	arm_rot_l	elbow_flex_l	pro_sup_l
      5.98333330	     -0.33318644	     10.59981805	      0.11315848	      0.47505333	      0.79649294	      0.19852227	     31.05679443	      3.28025649	      8.05288829	     65.96784570	      1.15135611	     34.82539613	    -20.80032408	     -7.49999987	     42.80075124	     -1.81041217	     -9.41517954	      1.51335160	      0.02641297	    -16.28823164	    -19.67891446	     -7.49999987	    -22.85343860	     -9.57611204	     -5.55097549	     45.24850884	      9.67833035	     63.19174780	    126.79705625	    101.38236942	     41.75890304	      7.92629275	     71.79016481	    130.84838906	     90.14351897
      6.00000000	     -0.04191295	     10.35213187	      0.22915947	      0.47572842	      0.79430939	      0.19855641	     31.14977823	      3.53725514	      7.73610326	     66.65385097	      1.16332916	     35.19811994	    -20.62044420	     -7.49999987	     42.38660295	     -1.88386222	     -9.68428548	      1.06867491	      0.01865190	    -16.68297089	    -18.31587214	     -7.49999987	    -23.45171409	     -9.32619120	     -5.70679985	     45.47506388	      9.74367029	     63.36919500	    126.42470082	     99.50644698	     41.66082644	      7.87618115	     71.86440650	    130.79567286	     89.13428847
      6.01666670	      0.19269824	     10.22373008	      0.27453727	      0.47482159	      0.78877509	      0.19735604	     31.69092135	      3.63807357	      7.39690490	     67.87072525	      1.18456762	     35.36294066	    -20.73819234	     -7.49999987	     42.28443975	     -1.81543458	     -9.46370021	      0.88471332	      0.01544116	    -16.78742219	    -17.95907269	     -7.49999987	    -24.01506380	     -9.15874562	     -5.71404676	     45.49296216	      9.59121124	     63.32976276	    126.22005228	     99.52210175	     41.62107172	      7.80942512	     71.90417350	    130.69429085	     89.15705354
      6.03333330	      0.30796208	      9.90561765	      0.31226377	      0.47115251	      0.78323553	      0.19881949	     32.28653191	      4.26145171	      7.26299910	     69.03686526	      1.20492060	     36.40465966	    -20.43527425	     -7.49999987	     42.36813252	     -1.98665949	     -9.95835288	      0.73618903	      0.01284892	    -15.30883440	    -14.97669439	     -7.49999987	    -24.39285398	     -8.83745737	     -5.70088536	     45.94096233	      9.72401218	     63.16600986	    125.49722207	     99.58129875	     41.80500628	      7.87805697	     71.90193563	    130.68333541	     89.47900978
      6.05000000	      0.57926585	      9.76759976	      0.38710982	      0.47489751	      0.78026505	      0.19712624	     32.47462681	      4.48587967	      7.12022665	     70.10746390	      1.22360608	     36.71835452	    -20.82247810	     -7.49999987	     42.09005149	     -1.86993465	     -9.37327108	      0.87858465	      0.01533419	    -14.94068970	    -15.01115028	     -7.49999987	    -24.76455468	     -8.64496643	     -5.70597200	     46.00762705	      9.56125278	     63.02211880	    125.17313341	     99.55052794	     41.88403324	      7.87055680	     71.87897649	    130.57336787	     89.49484603
      6.06666670	      0.62774126	      9.91438833	      0.41353119	      0.47419519	      0.77391529	      0.19662694	     32.83247136	      4.65674253	      7.37030956	     71.20338288	      1.24273347	     37.23559956	    -21.56810604	     -7.49999987	     42.23551142	     -1.58026599	     -8.71821734	      1.40210398	      0.02447133	    -15.01638395	    -16.32665015	     -7.49999987	    -25.00939782	     -8.69538341	     -6.00050044	     46.13311145	      9.64140674	     62.88782326	    124.85421631	     97.12168100	     41.91104703	      7.78781093	     72.05075885	    130.84059741	     87.69630334
      6.08333330	      0.57853024	      9.62879470	      0.59542968	      0.47689590	      0.76954516	      0.19794893	     32.84355920	      5.35462135	      7.36638962	     71.77203247	      1.25265828	     38.03252490	    -22.10910944	     -7.49999987	     42.34695917	     -1.77788563	     -7.71357282	      1.58326869	      0.02763325	    -15.47395316	    -17.94059181	     -7.49999987	    -24.86787028	     -8.42380033	     -6.15901369	     46.05524121	      9.57484570	     62.39791798	    124.68788234	     99.51790474	     41.60587935	      7.73804939	     71.77577336	    130.82060444	     90.48977718
      6.10000000	      0.52770526	      9.48521137	      0.57810865	      0.47338068	      0.76973023	      0.19606656	     33.17819774	      5.84337502	      7.66872598	     72.17903591	      1.25976183	     37.72604656	    -23.41357477	     -7.49999987	     42.51696083	     -1.74963069	     -7.69689662	      1.79524392	      0.03133292	    -15.32900366	    -18.45428883	     -7.49999987	    -24.92387664	     -8.24894238	     -6.37648112	     46.06198581	      9.55222117	     62.27073593	    124.76622448	     99.52457713	     41.64095380	      7.64961176	     71.97759232	    130.89253829	     90.53373304
      6.11666670	      0.44617874	      9.38556846	      0.52129194	      0.46951648	      0.76587372	      0.19732700	     33.79955531	      6.35371104	      7.90791983	     72.89153714	      1.27219732	     37.58619718	    -24.15313549	     -7.49999987	     42.89543004	     -1.81820455	     -7.27014308	      2.37541949	      0.04145889	    -15.99943814	    -20.11016826	     -7.49999987	    -25.12630846	     -8.08430006	     -6.49226238	     46.00425170	      9.55531354	     62.33378045	    124.89402075	     99.58751727	     41.72686290	      7.59992171	     72.10936114	    131.02426670	     90.65568215
      6.13333330	      0.55076928	      9.34508248	      0.50693922	      0.47358507	      0.76492713	      0.19569068	     33.89052401	      6.42745130	      7.95573969	     73.32120263	      1.27969640	     37.56674370	    -24.21773084	     -7.49999987	     42.73636664	     -1.73951017	     -7.42009949	      2.62559278	      0.04582524	    -15.98429382	    -20.25571495	     -7.49999987	    -25.45512403	     -7.77868632	     -6.62660684	     45.72878862	      9.34018722	     62.44225259	    124.87221771	     99.59591239	     41.65670341	      7.49113705	     72.14859010	    130.93629807	     90.65859225
      6.15000000	      0.80612278	      9.24817933	      0.44465832	      0.47339750	      0.76203875	      0.19988075	     33.93535659	      6.59647718	      7.67606370	     73.83453241	      1.28865569	     37.58069964	    -24.27383759	     -7.49999987	     42.62247952	     -1.91136152	     -7.09948236	      3.08670616	      0.05387319	    -16.00650858	    -20.22363203	     -7.49999987	    -25.93757028	     -7.75130083	     -6.63542054	     45.30922485	      9.25967676	     62.79031039	    124.96209786	     99.62375327	     41.62384637	      7.33362808	     72.17446363	    130.88802715	     90.67276204
